<svg id="visual" viewBox="0 0 1920 1080" width="1920" height="1080" xmlns="http://www.w3.org/2000/svg" xmlns:xlink="http://www.w3.org/1999/xlink" version="1.1"><rect x="0" y="0" width="1920" height="1080" fill="#352825"></rect><defs><linearGradient id="grad1_0" x1="43.8%" y1="0%" x2="100%" y2="100%"><stop offset="14.444444444444446%" stop-color="#4c3d27" stop-opacity="1"></stop><stop offset="85.55555555555554%" stop-color="#4c3d27" stop-opacity="1"></stop></linearGradient></defs><defs><linearGradient id="grad1_1" x1="43.8%" y1="0%" x2="100%" y2="100%"><stop offset="14.444444444444446%" stop-color="#4c3d27" stop-opacity="1"></stop><stop offset="85.55555555555554%" stop-color="#493927" stop-opacity="1"></stop></linearGradient></defs><defs><linearGradient id="grad1_2" x1="43.8%" y1="0%" x2="100%" y2="100%"><stop offset="14.444444444444446%" stop-color="#463527" stop-opacity="1"></stop><stop offset="85.55555555555554%" stop-color="#493927" stop-opacity="1"></stop></linearGradient></defs><defs><linearGradient id="grad1_3" x1="43.8%" y1="0%" x2="100%" y2="100%"><stop offset="14.444444444444446%" stop-color="#463527" stop-opacity="1"></stop><stop offset="85.55555555555554%" stop-color="#433127" stop-opacity="1"></stop></linearGradient></defs><defs><linearGradient id="grad1_4" x1="43.8%" y1="0%" x2="100%" y2="100%"><stop offset="14.444444444444446%" stop-color="#3f2e26" stop-opacity="1"></stop><stop offset="85.55555555555554%" stop-color="#433127" stop-opacity="1"></stop></linearGradient></defs><defs><linearGradient id="grad1_5" x1="43.8%" y1="0%" x2="100%" y2="100%"><stop offset="14.444444444444446%" stop-color="#3f2e26" stop-opacity="1"></stop><stop offset="85.55555555555554%" stop-color="#3a2b26" stop-opacity="1"></stop></linearGradient></defs><defs><linearGradient id="grad1_6" x1="43.8%" y1="0%" x2="100%" y2="100%"><stop offset="14.444444444444446%" stop-color="#352825" stop-opacity="1"></stop><stop offset="85.55555555555554%" stop-color="#3a2b26" stop-opacity="1"></stop></linearGradient></defs><defs><linearGradient id="grad2_0" x1="0%" y1="0%" x2="56.3%" y2="100%"><stop offset="14.444444444444446%" stop-color="#4c3d27" stop-opacity="1"></stop><stop offset="85.55555555555554%" stop-color="#4c3d27" stop-opacity="1"></stop></linearGradient></defs><defs><linearGradient id="grad2_1" x1="0%" y1="0%" x2="56.3%" y2="100%"><stop offset="14.444444444444446%" stop-color="#493927" stop-opacity="1"></stop><stop offset="85.55555555555554%" stop-color="#4c3d27" stop-opacity="1"></stop></linearGradient></defs><defs><linearGradient id="grad2_2" x1="0%" y1="0%" x2="56.3%" y2="100%"><stop offset="14.444444444444446%" stop-color="#493927" stop-opacity="1"></stop><stop offset="85.55555555555554%" stop-color="#463527" stop-opacity="1"></stop></linearGradient></defs><defs><linearGradient id="grad2_3" x1="0%" y1="0%" x2="56.3%" y2="100%"><stop offset="14.444444444444446%" stop-color="#433127" stop-opacity="1"></stop><stop offset="85.55555555555554%" stop-color="#463527" stop-opacity="1"></stop></linearGradient></defs><defs><linearGradient id="grad2_4" x1="0%" y1="0%" x2="56.3%" y2="100%"><stop offset="14.444444444444446%" stop-color="#433127" stop-opacity="1"></stop><stop offset="85.55555555555554%" stop-color="#3f2e26" stop-opacity="1"></stop></linearGradient></defs><defs><linearGradient id="grad2_5" x1="0%" y1="0%" x2="56.3%" y2="100%"><stop offset="14.444444444444446%" stop-color="#3a2b26" stop-opacity="1"></stop><stop offset="85.55555555555554%" stop-color="#3f2e26" stop-opacity="1"></stop></linearGradient></defs><defs><linearGradient id="grad2_6" x1="0%" y1="0%" x2="56.3%" y2="100%"><stop offset="14.444444444444446%" stop-color="#3a2b26" stop-opacity="1"></stop><stop offset="85.55555555555554%" stop-color="#352825" stop-opacity="1"></stop></linearGradient></defs><g transform="translate(1920, 0)"><path d="M0 810C-52.8 802.6 -105.6 795.3 -156.3 785.6C-206.9 775.9 -255.5 764 -310 748.3C-364.5 732.7 -424.9 713.4 -430.6 644.4C-436.2 575.4 -387 456.7 -419.3 419.3C-451.7 381.9 -565.6 425.7 -610.3 407.8C-655 389.9 -630.5 310.3 -609.8 252.6C-589 194.9 -572.1 159 -606.1 120.6C-640.1 82.1 -725.1 41.1 -810 0L0 0Z" fill="#382925"></path><path d="M0 694.3C-45.3 688 -90.5 681.7 -133.9 673.4C-177.4 665.1 -219 654.8 -265.7 641.4C-312.4 628 -364.2 611.5 -369.1 552.3C-373.9 493.2 -331.7 391.5 -359.4 359.4C-387.1 327.3 -484.8 364.9 -523.1 349.5C-561.4 334.2 -540.4 266 -522.7 216.5C-504.9 167 -490.4 136.3 -519.5 103.3C-548.7 70.4 -621.5 35.2 -694.3 0L0 0Z" fill="#3c2c26"></path><path d="M0 578.6C-37.7 573.3 -75.4 568.1 -111.6 561.1C-147.8 554.2 -182.5 545.7 -221.4 534.5C-260.3 523.4 -303.5 509.6 -307.5 460.3C-311.6 411 -276.4 326.2 -299.5 299.5C-322.6 272.8 -404 304.1 -435.9 291.3C-467.9 278.5 -450.3 221.6 -435.5 180.4C-420.7 139.2 -408.7 113.6 -432.9 86.1C-457.2 58.7 -517.9 29.3 -578.6 0L0 0Z" fill="#413026"></path><path d="M0 462.9C-30.2 458.6 -60.3 454.4 -89.3 448.9C-118.2 443.4 -146 436.6 -177.1 427.6C-208.3 418.7 -242.8 407.6 -246 368.2C-249.3 328.8 -221.1 261 -239.6 239.6C-258.1 218.2 -323.2 243.3 -348.7 233C-374.3 222.8 -360.3 177.3 -348.4 144.3C-336.6 111.3 -326.9 90.9 -346.4 68.9C-365.8 46.9 -414.3 23.5 -462.9 0L0 0Z" fill="#453327"></path><path d="M0 347.1C-22.6 344 -45.3 340.8 -67 336.7C-88.7 332.5 -109.5 327.4 -132.8 320.7C-156.2 314 -182.1 305.7 -184.5 276.2C-186.9 246.6 -165.8 195.7 -179.7 179.7C-193.6 163.7 -242.4 182.4 -261.6 174.8C-280.7 167.1 -270.2 133 -261.3 108.2C-252.4 83.5 -245.2 68.1 -259.8 51.7C-274.3 35.2 -310.7 17.6 -347.1 0L0 0Z" fill="#483727"></path><path d="M0 231.4C-15.1 229.3 -30.2 227.2 -44.6 224.5C-59.1 221.7 -73 218.3 -88.6 213.8C-104.1 209.3 -121.4 203.8 -123 184.1C-124.6 164.4 -110.6 130.5 -119.8 119.8C-129 109.1 -161.6 121.6 -174.4 116.5C-187.1 111.4 -180.1 88.7 -174.2 72.2C-168.3 55.7 -163.5 45.4 -173.2 34.4C-182.9 23.5 -207.2 11.7 -231.4 0L0 0Z" fill="#4b3b27"></path><path d="M0 115.7C-7.5 114.7 -15.1 113.6 -22.3 112.2C-29.6 110.8 -36.5 109.1 -44.3 106.9C-52.1 104.7 -60.7 101.9 -61.5 92.1C-62.3 82.2 -55.3 65.2 -59.9 59.9C-64.5 54.6 -80.8 60.8 -87.2 58.3C-93.6 55.7 -90.1 44.3 -87.1 36.1C-84.1 27.8 -81.7 22.7 -86.6 17.2C-91.4 11.7 -103.6 5.9 -115.7 0L0 0Z" fill="#4c3d27"></path></g><g transform="translate(0, 1080)"><path d="M0 -810C63.5 -833.2 127.1 -856.5 158 -794.4C189 -732.4 187.3 -585.1 225.4 -544.2C263.5 -503.2 341.2 -568.7 372.8 -557.9C404.4 -547.1 389.8 -460.1 436.3 -436.3C482.8 -412.4 590.4 -451.7 659.4 -440.6C728.3 -429.4 758.6 -367.8 737.3 -305.4C715.9 -242.9 642.8 -179.6 646.3 -128.6C649.8 -77.5 729.9 -38.8 810 0L0 0Z" fill="#382925"></path><path d="M0 -694.3C54.5 -714.2 108.9 -734.1 135.4 -680.9C162 -627.8 160.6 -501.5 193.2 -466.4C225.8 -431.3 292.5 -487.4 319.5 -478.2C346.6 -469 334.1 -394.4 374 -374C413.8 -353.5 506.1 -387.2 565.2 -377.6C624.3 -368.1 650.3 -315.3 631.9 -261.8C613.6 -208.2 551 -153.9 554 -110.2C557 -66.4 625.6 -33.2 694.3 0L0 0Z" fill="#3c2c26"></path><path d="M0 -578.6C45.4 -595.2 90.8 -611.8 112.9 -567.5C135 -523.1 133.8 -417.9 161 -388.7C188.2 -359.5 243.7 -406.2 266.3 -398.5C288.8 -390.8 278.4 -328.7 311.6 -311.6C344.9 -294.6 421.7 -322.7 471 -314.7C520.2 -306.7 541.9 -262.7 526.6 -218.1C511.3 -173.5 459.2 -128.3 461.7 -91.8C464.2 -55.4 521.4 -27.7 578.6 0L0 0Z" fill="#413026"></path><path d="M0 -462.9C36.3 -476.1 72.6 -489.4 90.3 -454C108 -418.5 107.1 -334.3 128.8 -311C150.5 -287.6 195 -325 213 -318.8C231.1 -312.7 222.7 -262.9 249.3 -249.3C275.9 -235.7 337.4 -258.1 376.8 -251.8C416.2 -245.4 433.5 -210.2 421.3 -174.5C409.1 -138.8 367.3 -102.6 369.3 -73.5C371.3 -44.3 417.1 -22.1 462.9 0L0 0Z" fill="#453327"></path><path d="M0 -347.1C27.2 -357.1 54.5 -367.1 67.7 -340.5C81 -313.9 80.3 -250.8 96.6 -233.2C112.9 -215.7 146.2 -243.7 159.8 -239.1C173.3 -234.5 167 -197.2 187 -187C206.9 -176.8 253 -193.6 282.6 -188.8C312.1 -184 325.1 -157.6 316 -130.9C306.8 -104.1 275.5 -77 277 -55.1C278.5 -33.2 312.8 -16.6 347.1 0L0 0Z" fill="#483727"></path><path d="M0 -231.4C18.2 -238.1 36.3 -244.7 45.1 -227C54 -209.3 53.5 -167.2 64.4 -155.5C75.3 -143.8 97.5 -162.5 106.5 -159.4C115.5 -156.3 111.4 -131.5 124.7 -124.7C137.9 -117.8 168.7 -129.1 188.4 -125.9C208.1 -122.7 216.8 -105.1 210.6 -87.3C204.5 -69.4 183.7 -51.3 184.7 -36.7C185.7 -22.1 208.5 -11.1 231.4 0L0 0Z" fill="#4b3b27"></path><path d="M0 -115.7C9.1 -119 18.2 -122.4 22.6 -113.5C27 -104.6 26.8 -83.6 32.2 -77.7C37.6 -71.9 48.7 -81.2 53.3 -79.7C57.8 -78.2 55.7 -65.7 62.3 -62.3C69 -58.9 84.3 -64.5 94.2 -62.9C104 -61.3 108.4 -52.5 105.3 -43.6C102.3 -34.7 91.8 -25.7 92.3 -18.4C92.8 -11.1 104.3 -5.5 115.7 0L0 0Z" fill="#4c3d27"></path></g></svg>